<svg width="35" height="35" viewBox="0 0 35 35" fill="none" xmlns="http://www.w3.org/2000/svg">
<path fill-rule="evenodd" clip-rule="evenodd" d="M16.7709 12.3958C16.7709 13.7025 16.2795 14.8954 15.4715 15.7981C16.6055 16.6047 17.4538 17.7509 17.8937 19.0711C18.3337 20.3913 18.3425 21.8172 17.9191 23.1428C17.4956 24.4684 16.6617 25.6251 15.5378 26.4457C14.414 27.2664 13.0583 27.7085 11.6667 27.7083H5.10425C4.52409 27.7083 3.96769 27.4778 3.55745 27.0676C3.14722 26.6574 2.91675 26.101 2.91675 25.5208V8.02081C2.91675 7.44065 3.14722 6.88425 3.55745 6.47402C3.96769 6.06378 4.52409 5.83331 5.10425 5.83331H10.9376C12.4847 5.83331 13.9684 6.44789 15.0624 7.54186C16.1563 8.63582 16.7709 10.1196 16.7709 11.6666V12.3958ZM5.83341 14.5833V8.74998H10.9376C11.7111 8.74998 12.453 9.05727 13 9.60425C13.547 10.1512 13.8542 10.8931 13.8542 11.6666V12.3958C13.8542 12.976 13.6238 13.5324 13.2135 13.9426C12.8033 14.3528 12.2469 14.5833 11.6667 14.5833H5.83341ZM5.83341 17.5H11.6667C12.6337 17.5 13.561 17.8841 14.2447 18.5678C14.9285 19.2515 15.3126 20.1789 15.3126 21.1458C15.3126 22.1127 14.9285 23.0401 14.2447 23.7238C13.561 24.4075 12.6337 24.7916 11.6667 24.7916H5.83341V17.5Z" fill="black"/>
<path d="M21.875 8.75002C21.875 8.36325 22.0286 7.99231 22.3021 7.71882C22.5756 7.44533 22.9466 7.29169 23.3333 7.29169H28.4375C28.8243 7.29169 29.1952 7.44533 29.4687 7.71882C29.7422 7.99231 29.8958 8.36325 29.8958 8.75002C29.8958 9.13679 29.7422 9.50773 29.4687 9.78122C29.1952 10.0547 28.8243 10.2084 28.4375 10.2084H23.3333C22.9466 10.2084 22.5756 10.0547 22.3021 9.78122C22.0286 9.50773 21.875 9.13679 21.875 8.75002Z" fill="black"/>
<path fill-rule="evenodd" clip-rule="evenodd" d="M25.8855 11.6667C21.7424 11.6667 18.2292 14.8488 18.2292 18.9584V20.4167C18.2292 24.5263 21.7424 27.7084 25.8855 27.7084C28.0949 27.7084 29.6947 27.0725 30.7665 26.3813C31.4111 25.9671 31.9172 25.4625 32.4042 24.8821C32.6162 24.5638 32.6946 24.175 32.6227 23.7995C32.5507 23.4239 32.3341 23.0916 32.0196 22.8742C31.705 22.6568 31.3176 22.5716 30.9409 22.637C30.5641 22.7025 30.2281 22.9132 30.0053 23.224C29.7739 23.5027 29.4979 23.7412 29.1886 23.9298C28.5601 24.3338 27.5028 24.7917 25.8855 24.7917C23.1832 24.7917 21.1459 22.75 21.1459 20.4167H32.0834C32.4702 20.4167 32.8411 20.263 33.1146 19.9896C33.3881 19.7161 33.5417 19.3451 33.5417 18.9584C33.5417 14.8488 30.0286 11.6667 25.8855 11.6667ZM30.3524 17.5C29.7107 15.8361 28.0015 14.5834 25.8855 14.5834C23.7695 14.5834 22.0603 15.8361 21.4186 17.5H30.3524Z" fill="black"/>
</svg>
