<svg width="35" height="35" viewBox="0 0 35 35" fill="none" xmlns="http://www.w3.org/2000/svg">
<path fill-rule="evenodd" clip-rule="evenodd" d="M5.24417 15.6304C9.02417 15.944 12.6438 15.1856 15.6406 13.4721C14.1329 11.2326 12.3663 9.17866 10.3775 7.35294C9.00722 8.3145 7.84592 9.54367 6.96367 10.9663C6.08141 12.3889 5.49648 13.9756 5.24417 15.6304ZM9.76208 4.2846C7.45568 5.6344 5.54289 7.56457 4.214 9.88309C2.88511 12.2016 2.18644 14.8277 2.1875 17.5C2.1875 25.9569 9.04313 32.8125 17.5 32.8125C25.9569 32.8125 32.8125 25.9569 32.8125 17.5C32.8125 9.04315 25.9569 2.18752 17.5 2.18752C14.7799 2.18312 12.1082 2.90668 9.76208 4.28315V4.2846ZM13.0958 5.90773C14.9346 7.69413 16.5854 9.66445 18.0221 11.7877C19.8407 10.2186 21.2519 8.23204 22.1346 5.99814C20.6615 5.40523 19.0879 5.10171 17.5 5.10419C15.9957 5.10251 14.5037 5.37531 13.0973 5.90919L13.0958 5.90773ZM24.7056 7.41273C23.5897 10.0922 21.83 12.4549 19.5825 14.2917C20.09 15.1798 20.561 16.0884 20.9942 17.0144C23.7402 15.9454 26.7108 15.4525 29.766 15.7048C29.5246 14.0534 28.952 12.4679 28.0827 11.0432C27.2133 9.61856 26.0652 8.3842 24.7071 7.41419L24.7056 7.41273ZM29.8433 18.639C27.1863 18.3677 24.5642 18.7702 22.1258 19.705C23.1338 22.3701 23.8016 25.1517 24.1135 27.984C25.721 26.9699 27.0737 25.5996 28.067 23.9792C29.0603 22.3588 29.6676 20.5316 29.8419 18.639H29.8433ZM21.3033 29.2994C21.0887 26.4498 20.4756 23.6443 19.4819 20.965C16.3931 22.7398 13.7419 25.3925 11.9 28.5615C13.6354 29.4414 15.5543 29.8987 17.5 29.8959C18.8271 29.8959 20.106 29.6873 21.3048 29.3009L21.3033 29.2994ZM9.46896 26.9427C11.604 23.3348 14.7044 20.2752 18.3531 18.2525C17.9879 17.4716 17.5938 16.7045 17.1719 15.9527C13.6515 17.9827 9.44271 18.8752 5.14646 18.5471C5.42051 21.8071 6.9747 24.8258 9.46896 26.9427Z" fill="black"/>
</svg>
