<svg width="35" height="35" viewBox="0 0 35 35" fill="none" xmlns="http://www.w3.org/2000/svg">
<path fill-rule="evenodd" clip-rule="evenodd" d="M2.91663 8.75002C2.91663 7.20292 3.53121 5.71919 4.62517 4.62523C5.71913 3.53127 7.20286 2.91669 8.74996 2.91669H26.25C27.7971 2.91669 29.2808 3.53127 30.3747 4.62523C31.4687 5.71919 32.0833 7.20292 32.0833 8.75002V26.25C32.0833 27.7971 31.4687 29.2808 30.3747 30.3748C29.2808 31.4688 27.7971 32.0834 26.25 32.0834H8.74996C7.20286 32.0834 5.71913 31.4688 4.62517 30.3748C3.53121 29.2808 2.91663 27.7971 2.91663 26.25V8.75002ZM8.74996 5.83335C7.97641 5.83335 7.23455 6.14064 6.68756 6.68763C6.14058 7.23461 5.83329 7.97647 5.83329 8.75002V26.25C5.83329 27.0236 6.14058 27.7654 6.68756 28.3124C7.23455 28.8594 7.97641 29.1667 8.74996 29.1667H26.25C27.0235 29.1667 27.7654 28.8594 28.3124 28.3124C28.8593 27.7654 29.1666 27.0236 29.1666 26.25V8.75002C29.1666 7.97647 28.8593 7.23461 28.3124 6.68763C27.7654 6.14064 27.0235 5.83335 26.25 5.83335H8.74996ZM17.5 13.125C16.3396 13.125 15.2268 13.586 14.4064 14.4064C13.5859 15.2269 13.125 16.3397 13.125 17.5C13.125 18.6603 13.5859 19.7731 14.4064 20.5936C15.2268 21.4141 16.3396 21.875 17.5 21.875C18.6603 21.875 19.7731 21.4141 20.5936 20.5936C21.414 19.7731 21.875 18.6603 21.875 17.5C21.875 16.3397 21.414 15.2269 20.5936 14.4064C19.7731 13.586 18.6603 13.125 17.5 13.125ZM10.2083 17.5C10.2083 15.5661 10.9765 13.7115 12.344 12.344C13.7114 10.9766 15.5661 10.2084 17.5 10.2084C19.4338 10.2084 21.2885 10.9766 22.6559 12.344C24.0234 13.7115 24.7916 15.5661 24.7916 17.5C24.7916 19.4339 24.0234 21.2886 22.6559 22.656C21.2885 24.0235 19.4338 24.7917 17.5 24.7917C15.5661 24.7917 13.7114 24.0235 12.344 22.656C10.9765 21.2886 10.2083 19.4339 10.2083 17.5ZM25.5208 11.6667C26.101 11.6667 26.6574 11.4362 27.0676 11.026C27.4778 10.6157 27.7083 10.0593 27.7083 9.47919C27.7083 8.89903 27.4778 8.34263 27.0676 7.93239C26.6574 7.52215 26.101 7.29169 25.5208 7.29169C24.9406 7.29169 24.3842 7.52215 23.974 7.93239C23.5638 8.34263 23.3333 8.89903 23.3333 9.47919C23.3333 10.0593 23.5638 10.6157 23.974 11.026C24.3842 11.4362 24.9406 11.6667 25.5208 11.6667Z" fill="black"/>
</svg>
