<svg width="300" height="300" viewBox="0 0 300 300" fill="none" xmlns="http://www.w3.org/2000/svg">
<mask id="path-1-inside-1_28_28" fill="white">
<path d="M0 10C0 4.47716 4.47715 0 10 0H250C277.614 0 300 22.3858 300 50V250C300 277.614 277.614 300 250 300H10C4.47716 300 0 295.523 0 290V10Z"/>
</mask>
<path d="M0 10C0 4.47716 4.47715 0 10 0H250C277.614 0 300 22.3858 300 50V250C300 277.614 277.614 300 250 300H10C4.47716 300 0 295.523 0 290V10Z" stroke="#0D110F" stroke-width="30" mask="url(#path-1-inside-1_28_28)"/>
<path d="M193.668 127C189.801 118.867 184.201 112.6 176.868 108.2C169.535 103.667 161.001 101.4 151.268 101.4C141.535 101.4 132.735 103.667 124.868 108.2C117.135 112.6 111.001 119 106.468 127.4C102.068 135.667 99.868 145.267 99.868 156.2C99.868 167.133 102.068 176.733 106.468 185C111.001 193.267 117.135 199.667 124.868 204.2C132.735 208.6 141.535 210.8 151.268 210.8C164.868 210.8 176.068 206.733 184.868 198.6C193.668 190.467 198.801 179.467 200.268 165.6H144.668V150.8H219.668V164.8C218.601 176.267 215.001 186.8 208.868 196.4C202.735 205.867 194.668 213.4 184.668 219C174.668 224.467 163.535 227.2 151.268 227.2C138.335 227.2 126.535 224.2 115.868 218.2C105.201 212.067 96.7346 203.6 90.468 192.8C84.3346 182 81.268 169.8 81.268 156.2C81.268 142.6 84.3346 130.4 90.468 119.6C96.7346 108.667 105.201 100.2 115.868 94.2C126.535 88.0667 138.335 85 151.268 85C166.068 85 179.135 88.6667 190.468 96C201.935 103.333 210.268 113.667 215.468 127H193.668Z" fill="#0D110F"/>
</svg>
